<svg width="20" height="20" viewBox="0 0 20 20" fill="none" xmlns="http://www.w3.org/2000/svg">
<g clip-path="url(#clip0)">
<path d="M10 0C4.47721 0 0 4.47721 0 10C0 15.5228 4.47721 20 10 20C10.3013 20 10.6014 19.9865 10.9001 19.9596C11.1777 19.9347 11.453 19.8966 11.7261 19.849L11.8311 19.8304C16.9087 18.8828 20.4294 14.2241 19.9544 9.08057C19.4795 3.93701 15.1654 0.0016276 10 0V0ZM9.19662 19.298H9.17301C8.91374 19.2751 8.65641 19.2404 8.40137 19.196C8.38672 19.1934 8.37207 19.1917 8.35775 19.189C8.1084 19.1444 7.86165 19.089 7.61735 19.0244L7.55827 19.0093C7.31999 18.9447 7.08431 18.8696 6.85205 18.7863C6.82796 18.7777 6.80371 18.77 6.77962 18.7611C6.55192 18.6774 6.32829 18.5837 6.10807 18.4823C6.08073 18.4701 6.05339 18.4583 6.02604 18.4453C5.81006 18.3454 5.59831 18.2327 5.39062 18.1143C5.36133 18.0977 5.33171 18.0811 5.30241 18.0646C5.09798 17.9453 4.89827 17.8174 4.70231 17.6823C4.67269 17.6616 4.64274 17.6416 4.61328 17.6209C4.42074 17.4844 4.23307 17.3394 4.05029 17.1877L4 17.1437V14.3333C4.00244 12.3092 5.64258 10.6691 7.66667 10.6667H12.3333C14.3574 10.6691 15.9976 12.3092 16 14.3333V17.144L15.9557 17.181C15.7694 17.3366 15.5781 17.4837 15.3817 17.6227C15.3556 17.641 15.3293 17.6584 15.3034 17.6763C15.1051 17.814 14.902 17.9435 14.694 18.0653C14.668 18.0804 14.6413 18.0947 14.6154 18.1097C14.4046 18.2297 14.1903 18.3429 13.9717 18.445C13.9466 18.4567 13.9214 18.4676 13.896 18.4784C13.674 18.5807 13.4484 18.675 13.2191 18.7593C13.1963 18.7677 13.1733 18.7751 13.1523 18.783C12.9189 18.8667 12.6823 18.9424 12.4427 19.0073L12.3853 19.0216C12.1406 19.0863 11.8937 19.1419 11.644 19.1867C11.6297 19.1893 11.6154 19.1911 11.6011 19.1934C11.3457 19.238 11.0881 19.2726 10.8286 19.2957H10.805C10.5384 19.3187 10.2716 19.3311 10.0016 19.3311C9.73161 19.3311 9.46273 19.321 9.19662 19.298ZM16.6667 16.526V14.3333C16.6639 11.9412 14.7254 10.0028 12.3333 10H7.66667C5.27458 10.0028 3.3361 11.9412 3.33333 14.3333V16.5257C-0.256836 12.8615 -0.216797 6.98665 3.42285 3.37158C7.0625 -0.243327 12.9375 -0.243327 16.5771 3.37158C20.2168 6.98665 20.2568 12.8615 16.6667 16.5257V16.526Z" fill="white"/>
<path d="M9.99984 2.66675C8.15885 2.66675 6.6665 4.1591 6.6665 6.00008C6.6665 7.84106 8.15885 9.33341 9.99984 9.33341C11.8408 9.33341 13.3332 7.84106 13.3332 6.00008C13.3312 4.15991 11.84 2.6687 9.99984 2.66675ZM9.99984 8.66675C8.52702 8.66675 7.33317 7.4729 7.33317 6.00008C7.33317 4.52726 8.52702 3.33341 9.99984 3.33341C11.4727 3.33341 12.6665 4.52726 12.6665 6.00008C12.6649 7.47209 11.4718 8.66512 9.99984 8.66675Z" fill="white"/>
</g>
<defs>
<clipPath id="clip0">
<rect width="20" height="20" fill="white"/>
</clipPath>
</defs>
</svg>
