<svg width="20" height="20" viewBox="0 0 20 20" fill="none" xmlns="http://www.w3.org/2000/svg">
<path d="M19.5815 18.4671C19.5813 18.4655 19.5811 18.4638 19.5808 18.4621L17.7307 5.62168C17.71 5.47754 17.5864 5.37051 17.4407 5.37051H16.0596V3.8509C16.0596 1.7275 14.3312 0 12.2067 0C11.3796 0 10.598 0.255313 9.93609 0.739609C9.29941 0.274805 8.51554 0 7.66851 0C6.87015 0 6.1041 0.24207 5.45316 0.700078C5.14335 0.918047 5.48062 1.39742 5.79031 1.1793C6.34203 0.791094 6.99152 0.585938 7.66855 0.585938C9.46996 0.585938 10.9355 2.05059 10.9355 3.8509V6.86395C10.9126 7.08875 10.7883 7.20703 10.5624 7.21871C10.376 7.20992 10.2244 7.04262 10.2244 6.84566V3.8509C10.2244 2.45785 9.06042 1.29629 7.66851 1.29629C6.25921 1.29629 5.11261 2.44227 5.11261 3.8509V6.84566C5.11261 7.04262 4.96101 7.20992 4.77468 7.21871C4.54882 7.20703 4.42445 7.08879 4.40156 6.86395V3.8509C4.40156 3.27867 4.55179 2.71574 4.83593 2.22305C5.02519 1.89492 4.51757 1.60215 4.32836 1.93031C3.99293 2.51191 3.81562 3.17605 3.81562 3.8509V5.37047H2.55183C2.40617 5.37047 2.28261 5.4775 2.26187 5.62168L0.411715 18.4621C0.302809 19.2607 0.962144 20 1.76289 20H18.2297C19.0376 20 19.683 19.2689 19.5815 18.4671ZM15.4737 3.8509V5.37047H14.7626V3.8509C14.7626 2.44227 13.616 1.29629 12.2067 1.29629C11.7266 1.29629 11.2561 1.43246 10.8522 1.68445C10.7171 1.48672 10.5641 1.30211 10.3955 1.13309C10.9314 0.774375 11.5523 0.585938 12.2067 0.585938C14.0081 0.585938 15.4737 2.05059 15.4737 3.8509ZM12.7075 5.37047C12.7074 5.37047 12.7073 5.37047 12.7071 5.37047H11.5214V3.8509C11.5214 3.2575 11.3864 2.69508 11.1455 2.19258C11.4605 1.99141 11.8296 1.88223 12.2067 1.88223C13.293 1.88223 14.1767 2.76539 14.1767 3.8509V5.37047H12.7075ZM9.63851 3.8509V5.37047H8.93968V3.8509C8.93968 3.42023 9.02519 2.99437 9.18863 2.6C9.46957 2.94035 9.63851 3.37625 9.63851 3.8509ZM7.66855 1.88223C8.05867 1.88223 8.4223 1.9966 8.72863 2.19289C8.48289 2.70801 8.35374 3.27598 8.35374 3.85094V5.37051H5.69855V3.8509C5.69859 2.76535 6.58234 1.88223 7.66855 1.88223ZM18.8125 19.1509C18.6652 19.3182 18.4527 19.4141 18.2297 19.4141H14.6159C14.8007 19.1477 14.8988 18.7863 14.8473 18.4621L14.4829 15.9333C14.4598 15.7732 14.3107 15.6621 14.1512 15.6851C13.991 15.7082 13.8799 15.8567 13.903 16.0169L14.2669 18.5429C14.336 19.1015 13.8645 19.4141 13.3687 19.4141H1.76289C1.3075 19.4141 0.936051 18.9964 0.992105 18.5429L2.80566 5.95641H3.81566V6.86395C3.81566 7.37234 4.24773 7.80508 4.75628 7.80508C5.2766 7.80508 5.69859 7.36195 5.69859 6.84566V5.95641H9.63851V6.84566C9.63851 7.35941 10.0322 7.78035 10.5348 7.80398C11.0595 7.82844 11.5214 7.39176 11.5214 6.86395V5.95641H12.4534L13.6813 14.4786C13.7044 14.6388 13.8532 14.7498 14.013 14.7268C14.1732 14.7037 14.2843 14.5552 14.2612 14.395L13.0454 5.95645H17.1869L19.0005 18.543C19.0277 18.763 18.9592 18.9845 18.8125 19.1509Z" fill="white"/>
</svg>
